# xmcd
#
# Track frame offsets: 
#        150
#        13835
#        25884
#        41461
#        55190
#        72703
#        87037
#        101459
#        118556
#        131399
#        145755
#        158094
#        178493
#        193528
#
# Disc length: 2784 seconds
#
# Revision: 0
# Processed by: cddbd v1.5.2PL0 Copyright (c) Steve Scherf et al.
# Submitted via: ExactAudioCopy v0.95b4
#
DISCID=bc0ade0e
DTITLE=Greg McDougal - Try A Little Kindness-Christian Country Music F
DTITLE=or A Great Cause
DYEAR=2008
DGENRE=Country
TTITLE0=If You Don't Believe the Bible(w/Branded-Paul Staggs and Rober
TTITLE0=t William Welch)
TTITLE1=Try a Little Kindness(w/Tommy Brandt)
TTITLE2=Loving You(w/Tammy Cochran)
TTITLE3=Dust on the Bible(w/The Oak Ridge Boys)
TTITLE4=Even When I Fall(w/Pat Bergeson on harmonica)
TTITLE5=I Owe My Life to the Lord(w/Mike Hammock)
TTITLE6=Thanks Again
TTITLE7=Dancing Shoes(w/Mary James)
TTITLE8=The Great Commission(w/Randy Kohrs on vocals and resonator gui
TTITLE8=tar)
TTITLE9=I Just Came to Talk With You Lord(w/Melanie Walker)
TTITLE10=Livin' by the Book(w/James Payne)
TTITLE11=Call of the Wild(w/The Bellamy Brothers)
TTITLE12=The Lighthouse(w/Mike Rimmey)
TTITLE13=While I Still Can(w/Les Butler on piano)
EXTD=
EXTT0=
EXTT1=
EXTT2=
EXTT3=
EXTT4=
EXTT5=
EXTT6=
EXTT7=
EXTT8=
EXTT9=
EXTT10=
EXTT11=
EXTT12=
EXTT13=
PLAYORDER=
